<?xml version="1.0" encoding="utf-8"?>
<!-- Generator: Adobe Illustrator 26.0.2, SVG Export Plug-In . SVG Version: 6.00 Build 0)  -->
<svg version="1.1" id="Camada_1" xmlns="http://www.w3.org/2000/svg" xmlns:xlink="http://www.w3.org/1999/xlink" x="0px" y="0px"
	 viewBox="0 0 25 23.8" style="enable-background:new 0 0 25 23.8;" xml:space="preserve">
<style type="text/css">
	.st0{fill:#fff;}
</style>
<path class="st0" d="M13.5,1.1l2.1,6.4c0.1,0.4,0.5,0.7,1,0.7h6.7c1,0,1.4,1.3,0.6,1.9L18.5,14c-0.4,0.3-0.5,0.7-0.4,1.1l2.1,6.4
	c0.3,0.9-0.8,1.7-1.6,1.1l-5.4-3.9c-0.4-0.3-0.8-0.3-1.2,0l-5.4,3.9c-0.8,0.6-1.9-0.2-1.6-1.1l2-6.4c0.1-0.4,0-0.9-0.4-1.1l-5.4-4
	C0.4,9.4,0.8,8.2,1.8,8.2h6.7c0.4,0,0.8-0.3,1-0.7l2.1-6.4C11.9,0.1,13.2,0.1,13.5,1.1z"/>
</svg>
