<?xml version="1.0" encoding="utf-8"?>
<!-- Generator: Adobe Illustrator 26.0.2, SVG Export Plug-In . SVG Version: 6.00 Build 0)  -->
<svg version="1.1" id="Camada_1" xmlns="http://www.w3.org/2000/svg" xmlns:xlink="http://www.w3.org/1999/xlink" x="0px" y="0px"
	 viewBox="0 0 47.7 77.1" style="enable-background:new 0 0 47.7 77.1;" xml:space="preserve">
<style type="text/css">
	.st0{fill:#FFFFFF;}
</style>
<path class="st0" d="M23.9,0C10.7,0,0,10.7,0,23.9c0,0,0,0,0,0c0,10.2,14.4,39.1,20.8,51.4c0.9,1.7,2.9,2.3,4.6,1.5
	c0.6-0.3,1.1-0.8,1.5-1.5c6.4-12.4,20.8-41.2,20.8-51.4C47.7,10.7,37,0,23.9,0z M23.9,34.1c-5,0-9.1-4.1-9.1-9.1s4.1-9.1,9.1-9.1
	s9.1,4.1,9.1,9.1c0,0,0,0,0,0C32.9,30,28.9,34.1,23.9,34.1z"/>
</svg>
